<?xml version="1.0" encoding="UTF-8" standalone="no"?>
<!-- Created with Inkscape (http://www.inkscape.org/) -->

<svg
   xmlns:dc="http://purl.org/dc/elements/1.1/"
   xmlns:cc="http://creativecommons.org/ns#"
   xmlns:rdf="http://www.w3.org/1999/02/22-rdf-syntax-ns#"
   xmlns:svg="http://www.w3.org/2000/svg"
   xmlns="http://www.w3.org/2000/svg"
   xmlns:sodipodi="http://sodipodi.sourceforge.net/DTD/sodipodi-0.dtd"
   xmlns:inkscape="http://www.inkscape.org/namespaces/inkscape"
   id="svg3054"
   version="1.1"
   inkscape:version="0.48.4 r9939"
   width="1001.1813"
   height="179.04789"
   xml:space="preserve"
   sodipodi:docname="uclheader.svg"><metadata
     id="metadata3060"><rdf:RDF><cc:Work
         rdf:about=""><dc:format>image/svg+xml</dc:format><dc:type
           rdf:resource="http://purl.org/dc/dcmitype/StillImage" /><dc:title /></cc:Work></rdf:RDF></metadata><defs
     id="defs3058" /><sodipodi:namedview
     pagecolor="#ffffff"
     bordercolor="#666666"
     borderopacity="1"
     objecttolerance="10"
     gridtolerance="10"
     guidetolerance="10"
     inkscape:pageopacity="0"
     inkscape:pageshadow="2"
     inkscape:window-width="1855"
     inkscape:window-height="1056"
     id="namedview3056"
     showgrid="false"
     inkscape:zoom="0.90967895"
     inkscape:cx="256.19668"
     inkscape:cy="26.286512"
     inkscape:window-x="65"
     inkscape:window-y="24"
     inkscape:window-maximized="1"
     inkscape:current-layer="g3064" /><g
     id="g3062"
     inkscape:groupmode="layer"
     inkscape:label="uclheader"
     transform="matrix(1.25,0,0,-1.25,0,179.04789)"><g
       id="g3064"><path
         d="m -0.098,143.023 800.875,0 0,-142.844 -315.73266,0 -485.14234,0 z"
         style="fill:#007922;fill-opacity:1;fill-rule:nonzero;stroke:none"
         id="path3066"
         inkscape:connector-curvature="0"
         sodipodi:nodetypes="cccccc" /><path
         d="m 636.062,53.273 164.656,0 0,-53.301 -164.656,0 0,53.301 z"
         style="fill:#ffffff;fill-opacity:1;fill-rule:nonzero;stroke:none"
         id="path3068" /><path
         d="m 560.078,71.195 0,-71.238 86.942,0 c -0.68,0.484 -1.313,0.992 -1.875,1.531 -5.036,4.867 -5.106,10.524 -5.25,15.825 l 0,30.066 16.109,0 0,-31.574 c 0,-2.145 0.07,-4.364 1.867,-6.082 1.297,-1.364 3.238,-1.864 5.106,-1.864 2.515,0 4.171,0.934 5.105,1.789 1.871,1.793 1.941,4.012 1.941,6.157 l 0,31.574 16.18,0 0,-26.918 c 0,-5.797 0,-13.316 -5.969,-18.973 -0.57,-0.535 -1.199,-1.043 -1.879,-1.531 l 24.122,0 c -7.102,5.094 -10.438,13.609 -10.438,21.863 0,13.602 9.137,27.422 26.32,27.422 7.696,0 15.028,-2.722 20.352,-8.164 2.156,-2.219 3.16,-3.937 4.238,-5.941 l -13.445,-6.66 c -1.293,3.011 -3.738,8.378 -10.5,8.378 -3.52,0 -5.75,-1.648 -6.828,-2.722 -3.813,-3.649 -3.813,-9.375 -3.813,-11.383 0,-7.516 2.805,-14.605 10.715,-14.605 7.481,0 9.707,6.585 10.285,8.304 l 13.66,-6.586 C 741.73,7.43 740.508,5.141 738.062,2.707 737.016,1.68 735.879,0.766 734.68,-0.043 l 14.769,0 0,47.492 16.035,0 0,-37.328 20.809,0 0,-10.164 14.73,0 0,71.238 -240.945,0"
         style="fill:#007922;fill-opacity:1;fill-rule:nonzero;stroke:none"
         id="path3070" /><path
         d="m 631.699,36.926 c -0.031,0.008 -8.379,1.801 -8.379,1.801 0,0 -8.359,-1.797 -8.379,-1.801 -0.043,-0.008 -0.027,-0.047 -0.027,-0.047 l 0.113,-0.43 0.028,0.004 -0.004,-0.004 c 0,0 0.129,0.02 0.203,-0.101 l 0.125,-0.688 c 0,0 0.004,-0.051 0.055,-0.051 l 15.777,0 c 0.043,0 0.047,0.036 0.047,0.036 l 0.125,0.691 c 0.07,0.133 0.211,0.113 0.211,0.113 l 0,0.004 0.019,-0.004 0.117,0.43 c 0,0 0.016,0.039 -0.031,0.047"
         style="fill:#ffffff;fill-opacity:1;fill-rule:nonzero;stroke:none"
         id="path3072" /><path
         d="m 630.824,35.391 c 0.008,0 0.016,0.007 0.016,0.015 l 0,0.215 c 0,0.012 -0.008,0.004 -0.016,0.004 l -1.273,0 c -0.012,0 -0.02,0.008 -0.02,-0.004 l 0,-0.215 c 0,-0.008 0.008,-0.015 0.02,-0.015 l 0.054,-0.004 c 0.024,0 0.024,-0.024 0.024,-0.051 0,-0.031 0.016,-0.195 0.133,-0.297 0.015,-0.012 0.008,-0.055 -0.024,-0.055 l -0.043,0 c -0.027,0 -0.027,-0.019 -0.019,-0.035 0.012,-0.019 0.012,-0.074 0.012,-0.101 l 0,-0.094 c 0,-0.016 0.003,-0.027 0.019,-0.027 l 0.02,0 c 0,0 0.011,0 0.011,-0.016 l 0,-4.699 c -0.011,-0.016 -0.062,-0.067 -0.066,-0.071 -0.004,-0.003 -0.008,-0.007 -0.008,-0.015 l 0,-0.078 c 0,-0.008 0,-0.016 -0.004,-0.02 -0.004,-0.004 -0.012,-0.004 -0.019,-0.004 l -0.059,0 c -0.012,0 -0.02,-0.011 -0.02,-0.019 l 0,-0.137 1.247,0 0,0.137 c 0,0.008 -0.008,0.019 -0.016,0.019 l -0.063,0 c -0.003,0 -0.011,0 -0.015,0.004 -0.004,0.004 -0.004,0.012 -0.004,0.02 l 0,0.078 c 0,0.008 -0.004,0.012 -0.008,0.015 -0.008,0.008 -0.051,0.051 -0.07,0.071 l 0,4.699 c 0,0.016 0.012,0.016 0.012,0.016 l 0.019,0 c 0.016,0 0.02,0.011 0.02,0.027 l 0,0.094 c 0,0.027 0.004,0.082 0.011,0.101 0.012,0.016 0.012,0.035 -0.019,0.035 l -0.039,0 c -0.035,0 -0.043,0.043 -0.024,0.055 0.117,0.098 0.129,0.262 0.129,0.297 0,0.027 -0.004,0.051 0.028,0.051 l 0.054,0.004"
         style="fill:#ffffff;fill-opacity:1;fill-rule:nonzero;stroke:none"
         id="path3074" /><path
         d="m 628.078,35.391 c 0.008,0 0.02,0.007 0.02,0.015 l 0,0.215 c 0,0.012 -0.012,0.004 -0.02,0.004 l -1.273,0 c -0.012,0 -0.02,0.008 -0.02,-0.004 l 0,-0.215 c 0,-0.008 0.008,-0.015 0.02,-0.015 l 0.054,-0.004 c 0.024,0 0.024,-0.024 0.024,-0.051 0,-0.031 0.015,-0.195 0.133,-0.297 0.015,-0.012 0.007,-0.055 -0.024,-0.055 l -0.039,0 c -0.031,0 -0.035,-0.019 -0.023,-0.035 0.011,-0.019 0.011,-0.074 0.011,-0.101 l 0,-0.094 c 0,-0.016 0.004,-0.027 0.02,-0.027 l 0.019,0 c 0,0 0.012,0 0.012,-0.016 0,-0.012 0,-0.02 0,-0.02 l 0,-4.679 c -0.012,-0.016 -0.062,-0.067 -0.066,-0.071 -0.004,-0.003 -0.008,-0.007 -0.008,-0.015 l 0,-0.078 c 0,-0.008 0,-0.016 -0.004,-0.02 -0.004,-0.004 -0.012,-0.004 -0.019,-0.004 l -0.059,0 c -0.012,0 -0.02,-0.011 -0.02,-0.019 l 0,-0.137 1.246,0 0,0.137 c 0,0.008 -0.007,0.019 -0.015,0.019 l -0.063,0 c -0.004,0 -0.011,0 -0.015,0.004 -0.004,0.004 -0.008,0.012 -0.008,0.02 l 0,0.078 c 0,0.008 0,0.012 -0.008,0.015 -0.004,0.008 -0.047,0.051 -0.066,0.071 l 0,4.699 c 0,0.016 0.011,0.016 0.011,0.016 l 0.02,0 c 0.016,0 0.02,0.011 0.02,0.027 l 0,0.094 c 0,0.027 0.003,0.082 0.011,0.101 0.012,0.016 0.008,0.035 -0.019,0.035 l -0.039,0 c -0.036,0 -0.043,0.043 -0.024,0.055 0.117,0.098 0.125,0.262 0.125,0.297 0,0.027 0,0.051 0.031,0.051 l 0.055,0.004"
         style="fill:#ffffff;fill-opacity:1;fill-rule:nonzero;stroke:none"
         id="path3076" /><path
         d="m 625.332,35.391 c 0.008,0 0.02,0.007 0.02,0.015 l 0,0.215 c 0,0.012 -0.012,0.004 -0.02,0.004 l -1.273,0 c -0.012,0 -0.02,0.008 -0.02,-0.004 l 0,-0.215 c 0,-0.008 0.008,-0.015 0.02,-0.015 l 0.054,-0.004 c 0.024,0 0.024,-0.024 0.024,-0.051 0,-0.031 0.015,-0.195 0.133,-0.297 0.015,-0.012 0.007,-0.055 -0.028,-0.055 l -0.039,0 c -0.027,0 -0.027,-0.019 -0.019,-0.035 0.007,-0.019 0.011,-0.074 0.011,-0.101 l 0,-0.094 c 0,-0.016 0.004,-0.027 0.02,-0.027 l 0.019,0 c 0,0 0.012,0 0.012,-0.016 0,-0.012 0,-0.02 0,-0.02 l 0,-4.679 c -0.012,-0.016 -0.062,-0.067 -0.066,-0.071 -0.004,-0.003 -0.008,-0.007 -0.008,-0.015 l 0,-0.078 c 0,-0.008 0,-0.016 -0.004,-0.02 -0.004,-0.004 -0.012,-0.004 -0.02,-0.004 l -0.058,0 c -0.012,0 -0.02,-0.011 -0.02,-0.019 l 0,-0.137 1.246,0 0,0.137 c 0,0.008 -0.007,0.019 -0.015,0.019 l -0.063,0 c -0.004,0 -0.011,0 -0.015,0.004 -0.004,0.004 -0.008,0.012 -0.008,0.02 l 0,0.078 c 0,0.008 0,0.012 -0.004,0.015 -0.008,0.008 -0.051,0.051 -0.07,0.071 l 0,4.679 c 0,0 0,0.008 0,0.02 0,0.016 0.011,0.016 0.011,0.016 l 0.02,0 c 0.016,0 0.019,0.011 0.019,0.027 l 0,0.094 c 0,0.027 0.004,0.082 0.016,0.101 0.008,0.016 0.004,0.035 -0.023,0.035 l -0.039,0 c -0.04,0 -0.04,0.043 -0.024,0.055 0.117,0.098 0.125,0.262 0.125,0.297 0,0.027 0,0.051 0.031,0.051 l 0.055,0.004"
         style="fill:#ffffff;fill-opacity:1;fill-rule:nonzero;stroke:none"
         id="path3078" /><path
         d="m 622.586,35.391 c 0.008,0 0.019,0.007 0.019,0.015 l 0,0.215 c 0,0.012 -0.011,0.004 -0.019,0.004 l -1.274,0 c -0.011,0 -0.019,0.008 -0.019,-0.004 l 0,-0.215 c 0,-0.008 0.008,-0.015 0.019,-0.015 l 0.055,-0.004 c 0.024,0 0.024,-0.024 0.024,-0.051 0,-0.031 0.015,-0.195 0.132,-0.297 0.016,-0.012 0.008,-0.055 -0.023,-0.055 l -0.039,0 c -0.031,0 -0.031,-0.019 -0.023,-0.035 0.007,-0.019 0.011,-0.074 0.011,-0.101 l 0,-0.094 c 0,-0.016 0.004,-0.027 0.02,-0.027 l 0.019,0 c 0,0 0.012,0 0.012,-0.016 l 0,-4.699 c -0.012,-0.016 -0.062,-0.067 -0.066,-0.071 -0.004,-0.003 -0.008,-0.007 -0.008,-0.015 l 0,-0.078 c 0,-0.008 0,-0.016 -0.004,-0.02 -0.008,-0.004 -0.012,-0.004 -0.02,-0.004 l -0.058,0 c -0.012,0 -0.02,-0.011 -0.02,-0.019 l 0,-0.137 1.246,0 0,0.137 c 0,0.008 -0.008,0.019 -0.019,0.019 l -0.059,0 c -0.008,0 -0.012,0 -0.015,0.004 -0.004,0.004 -0.008,0.012 -0.008,0.02 l 0,0.078 c 0,0.008 0,0.012 -0.008,0.015 -0.004,0.008 -0.047,0.051 -0.066,0.071 l 0,4.679 c 0,0 0,0.008 0,0.02 0,0.016 0.011,0.016 0.011,0.016 l 0.02,0 c 0.015,0 0.019,0.011 0.019,0.027 l 0,0.094 c 0,0.027 0.004,0.082 0.012,0.101 0.008,0.016 0.008,0.035 -0.019,0.035 l -0.04,0 c -0.039,0 -0.043,0.043 -0.027,0.055 0.117,0.098 0.129,0.262 0.129,0.297 0,0.027 0,0.051 0.031,0.051 l 0.051,0.004"
         style="fill:#ffffff;fill-opacity:1;fill-rule:nonzero;stroke:none"
         id="path3080" /><path
         d="m 619.84,35.391 c 0.008,0 0.015,0.007 0.015,0.015 l 0,0.215 c 0,0.012 -0.007,0.004 -0.015,0.004 l -1.274,0 c -0.011,0 -0.019,0.008 -0.019,-0.004 l 0,-0.215 c 0,-0.008 0.008,-0.015 0.019,-0.015 l 0.055,-0.004 c 0.024,0 0.024,-0.024 0.024,-0.051 0,-0.031 0.015,-0.195 0.132,-0.297 0.016,-0.012 0.008,-0.055 -0.023,-0.055 l -0.039,0 c -0.031,0 -0.035,-0.019 -0.024,-0.035 0.008,-0.019 0.012,-0.074 0.012,-0.101 l 0,-0.094 c 0,-0.016 0.004,-0.027 0.02,-0.027 l 0.019,0 c 0,0 0.012,0 0.012,-0.016 l 0,-4.699 c -0.012,-0.016 -0.063,-0.067 -0.066,-0.071 -0.004,-0.003 -0.008,-0.007 -0.008,-0.015 l 0,-0.078 c 0,-0.008 0,-0.016 -0.008,-0.02 0,-0.004 -0.008,-0.004 -0.016,-0.004 l -0.058,0 c -0.012,0 -0.02,-0.011 -0.02,-0.019 l 0,-0.137 1.246,0 0,0.137 c 0,0.008 -0.008,0.019 -0.019,0.019 l -0.059,0 c -0.008,0 -0.012,0 -0.016,0.004 -0.003,0.004 -0.007,0.012 -0.007,0.02 l 0,0.078 c 0,0.008 0,0.012 -0.004,0.015 -0.008,0.008 -0.051,0.051 -0.071,0.071 l 0,4.679 c 0,0 0,0.008 0,0.02 0,0.016 0.012,0.016 0.012,0.016 l 0.02,0 c 0.015,0 0.019,0.011 0.019,0.027 l 0,0.094 c 0,0.027 0.004,0.082 0.012,0.101 0.012,0.016 0.008,0.035 -0.02,0.035 l -0.039,0 c -0.039,0 -0.043,0.043 -0.027,0.055 0.121,0.098 0.129,0.262 0.129,0.297 0,0.027 0,0.051 0.031,0.051 l 0.055,0.004"
         style="fill:#ffffff;fill-opacity:1;fill-rule:nonzero;stroke:none"
         id="path3082" /><path
         d="m 617.094,35.391 c 0.008,0 0.015,0.007 0.015,0.015 l 0,0.215 c 0,0.012 -0.007,0.004 -0.015,0.004 l -1.274,0 c -0.011,0 -0.019,0.008 -0.019,-0.004 l 0,-0.215 c 0,-0.008 0.008,-0.015 0.019,-0.015 l 0.055,-0.004 c 0.023,0 0.023,-0.024 0.023,-0.051 0,-0.031 0.016,-0.195 0.133,-0.297 0.016,-0.012 0.008,-0.055 -0.023,-0.055 l -0.039,0 c -0.031,0 -0.031,-0.019 -0.024,-0.035 0.012,-0.019 0.012,-0.074 0.012,-0.101 l 0,-0.094 c 0,-0.016 0.004,-0.027 0.02,-0.027 l 0.019,0 c 0,0 0.012,0 0.012,-0.016 0,-0.012 0,-0.02 0,-0.02 l 0,-4.679 c -0.012,-0.016 -0.063,-0.067 -0.067,-0.071 -0.003,-0.003 -0.007,-0.007 -0.007,-0.015 l 0,-0.078 c 0,-0.008 0,-0.016 -0.004,-0.02 -0.004,-0.004 -0.012,-0.004 -0.02,-0.004 l -0.058,0 c -0.008,0 -0.02,-0.011 -0.02,-0.019 l 0,-0.137 1.246,0 0,0.137 c 0,0.008 -0.008,0.019 -0.016,0.019 l -0.062,0 c -0.004,0 -0.012,0 -0.016,0.004 -0.004,0.004 -0.004,0.012 -0.004,0.02 l 0,0.078 c 0,0.008 -0.003,0.012 -0.007,0.015 -0.008,0.008 -0.047,0.051 -0.071,0.071 l 0,4.699 c 0,0.016 0.016,0.016 0.016,0.016 l 0.016,0 c 0.015,0 0.019,0.011 0.019,0.027 l 0,0.094 c 0,0.027 0.004,0.082 0.016,0.101 0.008,0.016 0.004,0.035 -0.024,0.035 l -0.039,0 c -0.035,0 -0.039,0.043 -0.023,0.055 0.117,0.098 0.129,0.262 0.129,0.297 0,0.027 0,0.051 0.027,0.051 l 0.055,0.004"
         style="fill:#ffffff;fill-opacity:1;fill-rule:nonzero;stroke:none"
         id="path3084" /><path
         d="m 627.219,40.348 -0.133,0 c -0.031,0 -0.031,0.027 -0.031,0.027 l 0,0.145 c 0,0.035 -0.035,0.035 -0.035,0.035 l -0.129,0 c -0.036,0 -0.036,0.031 -0.036,0.031 l 0,0.129 c 0,0 0,0.031 -0.031,0.031 -0.012,0 -0.058,0 -0.078,0 -0.027,0 -0.055,0.02 -0.058,0.059 -0.004,0.175 0.058,1.433 -0.606,2.343 -0.52,0.782 -1.242,1.176 -1.641,1.364 -0.003,0.168 -0.246,0.23 -0.351,0.269 -0.055,0.02 -0.102,0.039 -0.102,0.09 0,0 -0.004,0.055 -0.004,0.059 0,0.05 0.047,0.074 0.121,0.07 0.024,0 0.04,0.02 0.04,0.035 l 0,0.149 c 0,0.023 -0.02,0.046 -0.051,0.046 l -0.145,0 c -0.035,0 -0.051,0.032 -0.051,0.051 l 0,0.078 c 0,0.043 -0.035,0.071 -0.062,0.082 l 0,0.938 c 0,0.031 0.023,0.027 0.047,0.027 0.004,0 0.008,0 0.012,0.004 0.015,0 0.023,0.008 0.023,0.02 l 0,0.09 c 0,0.015 -0.008,0.023 -0.023,0.023 l -0.04,0 c -0.015,0.008 -0.027,0.027 -0.027,0.066 0,0.047 0.012,0.067 0.031,0.071 l 0.036,0 c 0.015,0 0.023,0.008 0.023,0.019 l 0,0.094 c 0,0.012 -0.008,0.02 -0.023,0.02 l -0.047,0 c -0.02,0.003 -0.036,0.011 -0.055,0.031 -0.16,0.125 -0.324,0.308 -0.324,0.336 0,0.011 0,0.015 0,0.031 0,0.019 -0.02,0.059 -0.063,0.059 -0.043,0 -0.035,0.043 -0.011,0.043 0.011,0 0.019,0.003 0.019,0.027 l 0,0.058 c 0,0.028 -0.086,0.141 -0.086,0.141 l -0.004,0 c 0,0 -0.082,-0.113 -0.082,-0.141 0,-0.023 0,-0.046 0,-0.058 0,-0.024 0.004,-0.027 0.02,-0.027 0.023,0 0.027,-0.043 -0.016,-0.043 -0.043,0 -0.062,-0.04 -0.062,-0.059 0,-0.016 0,-0.02 0,-0.031 0,-0.028 -0.161,-0.211 -0.321,-0.336 -0.019,-0.02 -0.035,-0.028 -0.054,-0.031 l -0.051,0 c -0.012,0 -0.02,-0.008 -0.02,-0.02 l 0,-0.094 c 0,-0.011 0.008,-0.019 0.02,-0.019 l 0.039,0 c 0.015,-0.004 0.027,-0.024 0.027,-0.071 0,-0.039 -0.008,-0.058 -0.023,-0.066 l -0.043,0 c -0.012,0 -0.02,-0.008 -0.02,-0.023 l 0,-0.09 c 0,-0.012 0.008,-0.02 0.02,-0.02 l 0.004,0 c 0.004,-0.004 0.008,-0.004 0.011,-0.004 0.02,0 0.043,0.004 0.043,-0.027 l 0,-0.938 c -0.023,-0.011 -0.062,-0.039 -0.062,-0.082 l 0,-0.078 c 0,-0.019 -0.016,-0.051 -0.051,-0.051 l -0.141,0 c -0.035,0 -0.054,-0.023 -0.054,-0.046 l 0,-0.149 c 0,-0.015 0.019,-0.035 0.039,-0.035 0.074,0.004 0.121,-0.02 0.121,-0.07 0,-0.004 0,-0.059 0,-0.059 0,-0.051 -0.047,-0.07 -0.102,-0.09 -0.109,-0.039 -0.347,-0.101 -0.355,-0.269 -0.399,-0.188 -1.117,-0.582 -1.637,-1.364 -0.668,-0.91 -0.605,-2.168 -0.609,-2.343 0,-0.039 -0.027,-0.059 -0.055,-0.059 -0.023,0 -0.066,0 -0.078,0 -0.035,0 -0.035,-0.031 -0.035,-0.031 l 0,-0.129 c 0,0 0.004,-0.031 -0.031,-0.031 l -0.133,0 c 0,0 -0.031,0 -0.031,-0.035 l 0,-0.145 c 0,0 0,-0.027 -0.036,-0.027 l -0.132,0 c 0,0 -0.036,0 -0.036,-0.035 l 0,-0.153 c 0,-0.019 0.012,-0.019 0.024,-0.023 0.039,-0.004 0.117,-0.039 0.117,-0.129 0,-0.145 0.09,-0.16 0.129,-0.16 l 0,-0.547 c 0,-0.129 -0.102,-0.18 -0.156,-0.192 -0.012,-0.004 -0.028,-0.015 -0.028,-0.031 l 0,-0.562 3.84,0.847 0.004,0 3.844,-0.847 0,0.562 c 0,0.016 -0.02,0.027 -0.027,0.031 -0.059,0.012 -0.157,0.063 -0.157,0.192 l 0,0.547 c 0.035,0 0.125,0.015 0.125,0.16 0,0.09 0.082,0.125 0.121,0.129 0.012,0.004 0.024,0.004 0.024,0.023 l 0,0.153 c 0,0.035 -0.039,0.035 -0.039,0.035"
         style="fill:#ffffff;fill-opacity:1;fill-rule:nonzero;stroke:none"
         id="path3086" /><path
         d="m 631.465,28.074 0,1.121 -0.656,0 0,0.493 -14.977,0 0,-0.493 -0.656,0 0,-1.121 -0.66,0 0,-1.133 17.613,-0.003 0,1.132 -0.664,0"
         style="fill:#ffffff;fill-opacity:1;fill-rule:nonzero;stroke:none"
         id="path3088" /></g></g></svg>